{"scene":0,"asset":{"generator":"ImageToStl.com","version":"2.0"},"scenes":[{"name":"Scene","nodes":[0]}],"nodes":[{"name":"Node0","children":[1]},{"name":"Node1","mesh":0}],"materials":[{"name":"x1","pbrMetallicRoughness":{"baseColorFactor":[0.0,0.0,0.0,1.0],"metallicFactor":0.0,"roughnessFactor":1.0},"doubleSided":true}],"meshes":[{"name":"Mesh0","primitives":[{"indices":3,"material":0,"attributes":{"POSITION":0,"NORMAL":1,"TEXCOORD_0":2}}]}],"accessors":[{"bufferView":0,"componentType":5126,"count":555,"type":"VEC3","min":[-3.0437498,-2.0019188,-0.22102451],"max":[3.3844295,2.0019188,4.4072647]},{"bufferView":1,"componentType":5126,"count":555,"type":"VEC3"},{"bufferView":2,"componentType":5126,"count":555,"type":"VEC2"},{"bufferView":3,"componentType":5123,"count":8712,"type":"SCALAR"}],"bufferViews":[{"target":34962,"buffer":0,"byteLength":6660,"byteOffset":0},{"target":34962,"buffer":0,"byteLength":6660,"byteOffset":6660},{"target":34962,"buffer":0,"byteLength":4440,"byteOffset":13320},{"target":34963,"buffer":0,"byteLength":17424,"byteOffset":17760}],"buffers":[{"byteLength":35184,"uri":"data:application/octet-stream;base64,"}]}